# xmcd
#
# Track frame offsets:
#	150
#	17291
#	31336
#	44471
#	63801
#	81564
#	98040
#	116655
#	133004
#	150952
#	170776
#	190588
#	207181
#
# Disc length: 3023 seconds
#
# Revision: 2
# Processed by: cddbd v1.5.2PL0 Copyright (c) Steve Scherf et al.
# Submitted via: EasyCDDAExtractor 12.0.4.1
#
DISCID=a10bcd0d
DTITLE=JR-VOY - 25 BEST OF JR-VOY
DYEAR=2006
DGENRE=Country
TTITLE0=หลบหน่อย(พระเอกมา)
TTITLE1=ZIGGAZA
TTITLE2=LOVE POTION NO.9
TTITLE3=ONLY YOU
TTITLE4=พรุ่งนี้ไม่ต้องโทรมา
TTITLE5=โตไม่ทัน
TTITLE6=อยากให้เธอรู้
TTITLE7=VIRUS
TTITLE8=I LOVE YOU
TTITLE9=ล้น
TTITLE10=เพื่อนคุย
TTITLE11=มารักกัน
TTITLE12=ชอบ
EXTD=
EXTT0=
EXTT1=
EXTT2=
EXTT3=
EXTT4=
EXTT5=
EXTT6=
EXTT7=
EXTT8=
EXTT9=
EXTT10=
EXTT11=
EXTT12=
PLAYORDER=
